# xmcd
#
# Track frame offsets: 
#        150
#        13650
#        25190
#        37782
#        50200
#        62145
#        74190
#        86155
#        99132
#        112112
#        124940
#        137722
#        148995
#        162367
#        175475
#        189592
#        203697
#        216462
#        227732
#        240645
#        255735
#        270915
#        282710
#        296350
#
# Disc length: 4115 seconds
#
# Revision: 1
# Processed by: cddbd v1.5.2PL0 Copyright (c) Steve Scherf et al.
# Submitted via: ExactAudioCopy v0.99pb5
#
DISCID=7a101118
DTITLE=Willie The Lion Smith and His Cubs - 1935-1937
DYEAR=1993
DGENRE=Jazz
TTITLE0=There's Gonna Be The Devil To Pay
TTITLE1=Streamline Gal
TTITLE2=What Can I Do With A Foolish Little Girl Like You - Take A
TTITLE3=What Can I Do With A Foolish Little Girl Like You - Take B
TTITLE4=Harlem Joys
TTITLE5=Echo Of Spring - Take B
TTITLE6=Echo Of Spring - Take C
TTITLE7=Breeze (Blow My Baby Back To Me) - Take A
TTITLE8=Breeze (Blow My Baby Back To Me) - Take B
TTITLE9=Swing, Brother, Swing - Take A
TTITLE10=Swing, Brother, Swing - Take B
TTITLE11=Sittin' At The Table (Opposite You) - Take B
TTITLE12=The Swampland (Is Calling Me)
TTITLE13=More Than That
TTITLE14=I'm All Out Of Breath
TTITLE15=I Can See You All Over The Place
TTITLE16=Get Acquainted With Yourself
TTITLE17=Knock Wood
TTITLE18=Peace, Brother, Peace
TTITLE19=The Old Stamping Ground
TTITLE20=Blues, Why Don't You Leave Me Alone
TTITLE21=I've Got To Think It Over
TTITLE22=Achin' Hearted Blues
TTITLE23=Honeymoonin' On A Dime
EXTD=YEAR: 1998
EXTT0=
EXTT1=
EXTT2=
EXTT3=
EXTT4=
EXTT5=
EXTT6=
EXTT7=
EXTT8=
EXTT9=
EXTT10=
EXTT11=
EXTT12=
EXTT13=
EXTT14=
EXTT15=
EXTT16=
EXTT17=
EXTT18=
EXTT19=
EXTT20=
EXTT21=
EXTT22=
EXTT23=
PLAYORDER=
